<svg width="25" height="25" viewBox="0 0 25 25" fill="none" xmlns="http://www.w3.org/2000/svg">
<g clip-path="url(#clip0_195_3563)">
<path d="M11.2033 4.82861C11.9731 3.49528 13.8976 3.49528 14.6674 4.82861L21.7111 17.0285C22.4809 18.3618 21.5186 20.0285 19.979 20.0285H5.89177C4.35217 20.0285 3.38992 18.3618 4.15972 17.0285L11.2033 4.82861Z" fill="url(#paint0_linear_195_3563)"/>
<g filter="url(#filter0_i_195_3563)">
<path d="M12.0695 13.4198C12.4544 12.7531 13.4166 12.7531 13.8015 13.4198L16.7464 18.5205C17.1313 19.1872 16.6502 20.0205 15.8804 20.0205H9.99061C9.22081 20.0205 8.73969 19.1872 9.12459 18.5205L12.0695 13.4198Z" fill="#B9DDFF" fill-opacity="0.8"/>
</g>
</g>
<defs>
<filter id="filter0_i_195_3563" x="8.98914" y="12.9198" width="7.89282" height="7.20071" filterUnits="userSpaceOnUse" color-interpolation-filters="sRGB">
<feFlood flood-opacity="0" result="BackgroundImageFix"/>
<feBlend mode="normal" in="SourceGraphic" in2="BackgroundImageFix" result="shape"/>
<feColorMatrix in="SourceAlpha" type="matrix" values="0 0 0 0 0 0 0 0 0 0 0 0 0 0 0 0 0 0 127 0" result="hardAlpha"/>
<feOffset dy="0.2"/>
<feGaussianBlur stdDeviation="0.05"/>
<feComposite in2="hardAlpha" operator="arithmetic" k2="-1" k3="1"/>
<feColorMatrix type="matrix" values="0 0 0 0 1 0 0 0 0 1 0 0 0 0 1 0 0 0 1 0"/>
<feBlend mode="normal" in2="shape" result="effect1_innerShadow_195_3563"/>
</filter>
<linearGradient id="paint0_linear_195_3563" x1="4.28741" y1="20.8599" x2="22.7973" y2="12.5191" gradientUnits="userSpaceOnUse">
<stop stop-color="#2567FF"/>
<stop offset="1" stop-color="#22A7FF"/>
</linearGradient>
<clipPath id="clip0_195_3563">
<rect width="24" height="24" fill="white" transform="translate(0.935425 0.039917)"/>
</clipPath>
</defs>
</svg>
