<svg width="25" height="25" viewBox="0 0 25 25" fill="none" xmlns="http://www.w3.org/2000/svg">
<path fill-rule="evenodd" clip-rule="evenodd" d="M15.8878 12.0387C15.8878 12.038 15.8872 12.0374 15.8865 12.0374C15.8443 12.0391 15.8019 12.0399 15.7593 12.0399C13.9942 12.0399 12.5632 10.609 12.5632 8.84381C12.5632 7.07865 13.9942 5.64771 15.7593 5.64771C16.9116 5.64771 17.9215 6.25748 18.4838 7.17194C18.6305 7.41038 18.9262 7.52796 19.2012 7.47575C19.3411 7.44918 19.4856 7.43527 19.6332 7.43527C20.9048 7.43527 21.9356 8.46605 21.9356 9.73759C21.9356 11.0091 20.9048 12.0399 19.6333 12.0399C19.6333 12.0399 19.6333 12.0399 19.6333 12.0399V12.0399C19.6333 12.0399 19.6333 12.0399 19.6333 12.0399H15.889C15.8883 12.0399 15.8878 12.0394 15.8878 12.0387V12.0387Z" fill="url(#paint0_linear_195_3649)"/>
<g filter="url(#filter0_bi_195_3649)">
<path fill-rule="evenodd" clip-rule="evenodd" d="M7.12307 18.965C7.11144 18.9652 7.09979 18.9652 7.08813 18.9652C5.3468 18.9652 3.93518 17.5536 3.93518 15.8123C3.93518 14.071 5.3468 12.6593 7.08813 12.6593V12.6593C7.11844 12.6593 7.14227 12.6331 7.13922 12.603C7.12328 12.4457 7.11512 12.2862 7.11512 12.1249C7.11512 9.41038 9.4254 7.20984 12.2753 7.20984C14.7899 7.20984 16.8845 8.92315 17.3424 11.1911C17.4036 11.494 17.697 11.707 18.0051 11.6833C18.0988 11.6761 18.1935 11.6724 18.289 11.6724C20.3029 11.6724 21.9355 13.3049 21.9355 15.3188C21.9355 17.3327 20.3029 18.9652 18.289 18.9652C18.2205 18.9652 18.1524 18.9633 18.0847 18.9596C18.0417 18.9633 17.9982 18.9652 17.9542 18.9652H7.14527C7.13786 18.9652 7.13046 18.9652 7.12307 18.965Z" fill="#BFB5FF" fill-opacity="0.8"/>
</g>
<defs>
<filter id="filter0_bi_195_3649" x="1.93518" y="5.20984" width="22.0002" height="15.7554" filterUnits="userSpaceOnUse" color-interpolation-filters="sRGB">
<feFlood flood-opacity="0" result="BackgroundImageFix"/>
<feGaussianBlur in="BackgroundImageFix" stdDeviation="1"/>
<feComposite in2="SourceAlpha" operator="in" result="effect1_backgroundBlur_195_3649"/>
<feBlend mode="normal" in="SourceGraphic" in2="effect1_backgroundBlur_195_3649" result="shape"/>
<feColorMatrix in="SourceAlpha" type="matrix" values="0 0 0 0 0 0 0 0 0 0 0 0 0 0 0 0 0 0 127 0" result="hardAlpha"/>
<feOffset dy="0.2"/>
<feGaussianBlur stdDeviation="0.05"/>
<feComposite in2="hardAlpha" operator="arithmetic" k2="-1" k3="1"/>
<feColorMatrix type="matrix" values="0 0 0 0 1 0 0 0 0 1 0 0 0 0 1 0 0 0 1 0"/>
<feBlend mode="normal" in2="shape" result="effect2_innerShadow_195_3649"/>
</filter>
<linearGradient id="paint0_linear_195_3649" x1="14.133" y1="10.8862" x2="29.7321" y2="2.98268" gradientUnits="userSpaceOnUse">
<stop stop-color="#3F2DAF"/>
<stop offset="1" stop-color="#917FFB"/>
</linearGradient>
</defs>
</svg>
