<svg width="25" height="25" viewBox="0 0 25 25" fill="none" xmlns="http://www.w3.org/2000/svg">
<rect x="12.9369" y="12.5406" width="8.99854" height="8.99854" rx="1.5" fill="url(#paint0_linear_195_3615)"/>
<g filter="url(#filter0_i_195_3615)">
<path d="M5.93542 18.0399C4.83086 18.0399 3.93542 17.1445 3.93542 16.0399L3.93542 5.03992C3.93542 3.93535 4.83085 3.03992 5.93542 3.03992L16.9354 3.03992C18.04 3.03992 18.9354 3.93535 18.9354 5.03992L18.9354 16.0399C18.9354 17.1445 18.04 18.0399 16.9354 18.0399L5.93542 18.0399Z" fill="#BFB5FF" fill-opacity="0.8"/>
</g>
<path d="M7.0415 9.23992C8.21488 8.08978 9.79244 7.44556 11.4355 7.44556C13.0786 7.44556 14.6561 8.08978 15.8295 9.23992" stroke="white" stroke-width="1.5" stroke-linecap="round" stroke-linejoin="round"/>
<path d="M9.23828 11.437C9.82497 10.8619 10.6138 10.5398 11.4353 10.5398C12.2568 10.5398 13.0456 10.8619 13.6323 11.437" stroke="white" stroke-width="1.5" stroke-linecap="round" stroke-linejoin="round"/>
<path d="M11.4354 13.634H11.4413" stroke="white" stroke-width="2" stroke-linecap="round" stroke-linejoin="round"/>
<defs>
<filter id="filter0_i_195_3615" x="3.93542" y="3.03992" width="15" height="15.2764" filterUnits="userSpaceOnUse" color-interpolation-filters="sRGB">
<feFlood flood-opacity="0" result="BackgroundImageFix"/>
<feBlend mode="normal" in="SourceGraphic" in2="BackgroundImageFix" result="shape"/>
<feColorMatrix in="SourceAlpha" type="matrix" values="0 0 0 0 0 0 0 0 0 0 0 0 0 0 0 0 0 0 127 0" result="hardAlpha"/>
<feOffset dy="0.276368"/>
<feGaussianBlur stdDeviation="0.138184"/>
<feComposite in2="hardAlpha" operator="arithmetic" k2="-1" k3="1"/>
<feColorMatrix type="matrix" values="0 0 0 0 1 0 0 0 0 1 0 0 0 0 1 0 0 0 1 0"/>
<feBlend mode="normal" in2="shape" result="effect1_innerShadow_195_3615"/>
</filter>
<linearGradient id="paint0_linear_195_3615" x1="14.4441" y1="19.9151" x2="31.2581" y2="14.1047" gradientUnits="userSpaceOnUse">
<stop stop-color="#3F2DAF"/>
<stop offset="1" stop-color="#917FFB"/>
</linearGradient>
</defs>
</svg>
