<svg width="25" height="25" viewBox="0 0 25 25" fill="none" xmlns="http://www.w3.org/2000/svg">
<rect x="12.6047" y="16.9965" width="13.4583" height="9.33069" rx="1.49536" transform="rotate(-90 12.6047 16.9965)" fill="url(#paint0_linear_195_3477)"/>
<g filter="url(#filter0_bi_195_3477)">
<path d="M9.11864 21.2902C9.65433 21.6209 10.3146 21.6209 10.8503 21.2902C12.5225 20.2581 16.0335 17.6795 16.0335 14.2231V10.3162C16.0335 9.48255 15.5163 8.7363 14.7357 8.44358L10.6867 6.92519C10.2339 6.7554 9.73497 6.7554 9.2822 6.92519L5.23318 8.44358C4.45257 8.7363 3.93542 9.48255 3.93542 10.3162V14.2231C3.93542 17.6795 7.44637 20.2581 9.11864 21.2902Z" fill="#B9DDFF" fill-opacity="0.8"/>
</g>
<path d="M9.98446 14.4423C10.9252 14.4423 11.6878 13.6797 11.6878 12.739C11.6878 11.7983 10.9252 11.0356 9.98446 11.0356C9.04373 11.0356 8.28113 11.7983 8.28113 12.739C8.28113 13.6797 9.04373 14.4423 9.98446 14.4423Z" fill="white"/>
<path d="M9.98449 13.7051C10.3146 13.7051 10.5826 13.9814 10.5826 14.3227V16.7927C10.5826 17.1336 10.315 17.4103 9.98449 17.4103C9.65435 17.4103 9.38635 17.134 9.38635 16.7927V14.3227C9.38635 13.9818 9.65401 13.7051 9.98449 13.7051Z" fill="white"/>
<defs>
<filter id="filter0_bi_195_3477" x="1.93542" y="4.79785" width="16.098" height="18.7404" filterUnits="userSpaceOnUse" color-interpolation-filters="sRGB">
<feFlood flood-opacity="0" result="BackgroundImageFix"/>
<feGaussianBlur in="BackgroundImageFix" stdDeviation="1"/>
<feComposite in2="SourceAlpha" operator="in" result="effect1_backgroundBlur_195_3477"/>
<feBlend mode="normal" in="SourceGraphic" in2="effect1_backgroundBlur_195_3477" result="shape"/>
<feColorMatrix in="SourceAlpha" type="matrix" values="0 0 0 0 0 0 0 0 0 0 0 0 0 0 0 0 0 0 127 0" result="hardAlpha"/>
<feOffset dy="0.2"/>
<feGaussianBlur stdDeviation="0.05"/>
<feComposite in2="hardAlpha" operator="arithmetic" k2="-1" k3="1"/>
<feColorMatrix type="matrix" values="0 0 0 0 1 0 0 0 0 1 0 0 0 0 1 0 0 0 1 0"/>
<feBlend mode="normal" in2="shape" result="effect2_innerShadow_195_3477"/>
</filter>
<linearGradient id="paint0_linear_195_3477" x1="23.3956" y1="20.9053" x2="13.3373" y2="25.3042" gradientUnits="userSpaceOnUse">
<stop stop-color="#2567FF"/>
<stop offset="1" stop-color="#22A7FF"/>
</linearGradient>
</defs>
</svg>
