<svg width="58" height="70" viewBox="0 0 58 70" fill="none" xmlns="http://www.w3.org/2000/svg">
<path d="M28.9823 16.7345C30.4989 16.7345 35.4164 15.7694 39.2309 10.2085C42.4939 5.3829 42.1263 0.00580045 42.1263 0.00580045C42.1263 0.00580045 36.4734 -0.407822 31.5099 5.75056C27.9252 10.2544 28.201 16.6886 28.201 16.6886C28.201 16.6886 28.4767 16.7345 28.9823 16.7345Z" fill="white"/>
<path d="M57.3383 52.0764C57.6141 51.2951 57.7979 50.8355 57.7979 50.8355H57.752C57.752 50.8355 57.706 50.8355 57.66 50.7895C57.3843 50.6976 56.7409 50.4219 55.9136 49.9163C54.2591 48.9512 51.9612 47.1588 50.3068 44.2635C49.2497 42.4252 48.5144 40.1272 48.3306 37.2778C48.2386 35.8531 48.3765 34.4744 48.6523 33.2335V33.1876C48.7442 32.7739 48.8361 32.4063 48.974 31.9927C50.4446 27.213 53.8915 24.0879 55.2702 23.0308L55.8217 22.6172C55.8217 22.6172 51.4097 15.7695 43.0913 15.7695C35.9219 15.7695 33.2563 18.9865 29.4418 18.9865C24.7541 18.9865 24.0187 15.9993 17.0791 15.9993C13.4943 15.9993 8.48491 17.378 4.76231 22.2036C1.82099 25.9722 0.717987 30.4301 0.258407 33.6931C-0.0173417 35.8991 -0.109249 38.2889 0.166499 40.9545C0.166499 41.1383 0.21246 41.3222 0.21246 41.5519C0.488208 44.2175 1.17757 47.0669 2.14269 49.9163C2.14269 49.9623 2.18865 50.0542 2.23461 50.1001C2.32653 50.4218 2.4644 50.7895 2.60227 51.1112C2.64823 51.2491 2.74014 51.4329 2.7861 51.5708C2.83206 51.7087 2.87803 51.8925 2.96994 52.0304C3.88911 54.4202 4.94614 56.7181 6.18701 58.8781C9.77174 65.2204 14.4135 70 18.7795 70C23.743 70 25.3056 66.7829 30.269 66.8289C36.5653 66.8748 38.3117 70.8732 43.5969 69.8162C47.1356 69.1268 51.3638 64.1174 54.0753 59.3377C54.1672 59.1539 54.2591 59.016 54.3511 58.8781C55.6379 56.1207 56.7409 53.547 57.3383 52.0764Z" fill="white"/>
</svg>
