<svg width="60" height="60" viewBox="0 0 60 60" fill="none" xmlns="http://www.w3.org/2000/svg">
<path d="M44.039 39.1406C48.6269 36.8313 53.1974 34.4875 57.75 32.1094C59.332 31.2304 60.914 29.2969 57.75 27.7148C56.6953 27.3633 51.0703 24.375 43.8633 20.6836L34.0195 29.8242L44.039 39.1406Z" fill="#FFE300"/>
<path d="M34.1953 29.8242L2.73044 59.707C3.43356 59.7949 4.31247 59.6191 5.27927 59.1094L44.1093 39.2109L34.1953 29.8242Z" fill="#FF4E54"/>
<path d="M34.1777 29.8593L43.8633 20.6836L5.24411 0.820286C4.46041 0.412848 3.56002 0.288656 2.69528 0.468724L34.1777 29.8593Z" fill="#00F085"/>
<path d="M34.1953 29.8242L2.73044 0.468732C1.42966 0.732404 0.357391 1.80467 0.374969 3.91404V56.1914C0.374969 58.1777 1.20114 59.584 2.76559 59.7246L34.1953 29.8242Z" fill="#00E0FF"/>
</svg>
