<svg version="1.2" baseProfile="tiny-ps" xmlns="http://www.w3.org/2000/svg" viewBox="0 0 308 85" width="1000" height="276">
	<title>Framework-svg</title>
	<style>
		tspan { white-space:pre }
		.shp0 { fill: #000000 } 
	</style>
	<path id="Layer" fill-rule="evenodd" class="shp0" d="M19.96 31.9L19.96 42.11L11.87 42.11L11.87 31.9L19.96 31.9ZM20.02 24.22L38.14 24.22L38.14 31.9L20.02 31.9L20.02 24.22ZM286.3 49.08L298.08 65.79L288.52 65.79L280.9 54.77L277.68 58.17L277.68 65.79L269.88 65.79L269.88 23.34L277.68 23.34L277.68 47.67L287.64 36.94L297.85 36.94L286.3 49.08ZM11.87 65.79L11.87 49.64L20.02 49.64L20.02 42.16L36.15 42.16L36.15 49.61L20.02 49.61L20.02 65.79L11.87 65.79ZM58.62 44.68C57.75 44.5 56.98 44.45 56.28 44.45C52.29 44.45 48.83 46.38 48.83 52.6L48.83 65.79L41.03 65.79L41.03 36.94L48.6 36.94L48.6 41.22C50.36 37.41 54.34 36.71 56.81 36.71C57.45 36.71 58.04 36.76 58.62 36.82L58.62 44.68ZM71.26 66.61C65.1 66.61 61.35 62.45 61.35 57.93C61.35 52.77 65.16 49.9 69.97 49.19L77.06 48.14C78.71 47.9 79.23 47.08 79.23 46.09C79.23 44.03 77.65 42.33 74.37 42.33C70.97 42.33 69.09 44.5 68.86 47.03L61.94 45.56C62.41 41.04 66.57 36.06 74.31 36.06C83.46 36.06 86.86 41.22 86.86 47.03L86.86 61.22C86.86 62.74 87.03 64.79 87.21 65.79L80.06 65.79C79.88 65.03 79.76 63.44 79.76 62.33C78.3 64.62 75.54 66.61 71.26 66.61ZM69.15 57.46C69.15 59.16 70.38 60.8 72.9 60.8C76.19 60.8 79.23 59.22 79.23 54.12L79.23 52.83L72.73 53.83C70.73 54.12 69.15 55.23 69.15 57.46ZM91.55 65.79L91.55 36.94L98.99 36.94L98.99 40.46C100.58 37.64 104.27 36.12 107.44 36.12C111.36 36.12 114.53 37.82 116 40.93C118.28 37.41 121.33 36.12 125.14 36.12C130.48 36.12 135.58 39.34 135.58 47.08L135.58 65.79L128.02 65.79L128.02 48.67C128.02 45.56 126.49 43.21 122.92 43.21C119.57 43.21 117.58 45.79 117.58 48.9L117.58 65.79L109.84 65.79L109.84 48.67C109.84 45.56 108.26 43.21 104.74 43.21C101.34 43.21 99.34 45.74 99.34 48.9L99.34 65.79L91.55 65.79ZM182.18 55.47L188.45 36.94L196.66 36.94L202.87 55.53L208.21 36.94L215.95 36.94L206.92 65.79L199.12 65.79L192.38 46.09L185.75 65.79L177.84 65.79L168.63 36.94L176.84 36.94L182.18 55.47ZM245.99 51.36C245.99 60.22 239.48 66.67 230.86 66.67C222.24 66.67 215.73 60.22 215.73 51.36C215.73 42.45 222.24 36.06 230.86 36.06C239.48 36.06 245.99 42.45 245.99 51.36ZM238.19 51.36C238.19 45.91 234.67 43.16 230.86 43.16C227.05 43.16 223.53 45.91 223.53 51.36C223.53 56.76 227.05 59.57 230.86 59.57C234.67 59.57 238.19 56.82 238.19 51.36ZM264.75 36.71C265.39 36.71 265.98 36.76 266.56 36.82L266.56 44.68C265.68 44.5 264.92 44.45 264.22 44.45C260.23 44.45 256.77 46.38 256.77 52.6L256.77 65.79L248.97 65.79L248.97 36.94L256.54 36.94L256.54 41.22C258.3 37.41 262.28 36.71 264.75 36.71Z" />
	<path id="Layer" fill-rule="evenodd" class="shp0" d="M167.17 57.52C165.7 62.5 161.13 66.67 154.03 66.67C146.12 66.67 139.14 60.98 139.14 51.25C139.14 42.04 145.94 36.06 153.33 36.06C162.24 36.06 167.58 41.75 167.58 51.01C167.58 52.13 167.46 53.3 167.46 53.42L146.82 53.42C147 57.23 150.22 59.98 154.09 59.98C157.73 59.98 159.72 58.17 160.66 55.59L167.17 57.52ZM159.9 48.08C159.78 45.21 157.9 42.39 153.45 42.39C149.4 42.39 147.17 45.44 147 48.08L159.9 48.08Z" />
</svg>