<svg width="117" height="28" viewBox="0 0 117 28" fill="none" xmlns="http://www.w3.org/2000/svg">
<path d="M112.346 21.8193L98.2749 0.16138L92.3852 0.166174L92.4677 27.454L96.991 27.4477L96.9373 6.5063L110.424 27.4467H116.749L116.67 0.119141L112.139 0.123024L112.346 21.8193Z" fill="#392E25"/>
<path d="M19.6087 11.7218V0.132831H24.2755V27.4473H19.604V16.182H4.662V27.4473H0V0.132831H4.662V11.7218H19.6087Z" fill="#392E25"/>
<path fill-rule="evenodd" clip-rule="evenodd" d="M40.9398 0.132831H45.649L56.8919 27.4473H52.0721L49.5646 21.3533H37.0289L34.5213 27.4473H29.7109L40.9398 0.132831ZM43.2991 6.14521L38.8772 16.8497H47.7138L43.2991 6.14521Z" fill="#392E25"/>
<path d="M72.9819 28.0003C65.9396 28.0003 61.0539 23.6115 61.0539 15.6952V0.132831H65.7207V15.3332C65.7207 20.3236 68.6171 23.3617 73.0904 23.377C77.5644 23.3922 80.2906 19.9413 80.2906 15.3332V0.132831H84.9102V15.6952C84.9102 23.3694 79.7517 28.0003 72.9819 28.0003Z" fill="#392E25"/>
</svg>
