<svg width="24" height="24" viewBox="0 0 24 24" fill="none" xmlns="http://www.w3.org/2000/svg">
<g style="mix-blend-mode:luminosity">
<path fill-rule="evenodd" clip-rule="evenodd" d="M14.9525 11.391C14.9525 11.3903 14.9519 11.3897 14.9512 11.3897C14.909 11.3914 14.8666 11.3922 14.824 11.3922C13.0589 11.3922 11.6279 9.96127 11.6279 8.19611C11.6279 6.43095 13.0589 5 14.824 5C15.9763 5 16.9862 5.60977 17.5485 6.52423C17.6952 6.76267 17.9909 6.88026 18.2659 6.82804C18.4058 6.80147 18.5503 6.78757 18.6979 6.78757C19.9695 6.78757 21.0003 7.81835 21.0003 9.08988C21.0003 10.3614 19.9695 11.3922 18.698 11.3922C18.698 11.3922 18.698 11.3922 18.698 11.3922C18.698 11.3922 18.698 11.3922 18.698 11.3922H14.9537C14.953 11.3922 14.9525 11.3917 14.9525 11.391Z" fill="url(#paint0_linear_281_45161)"/>
<g filter="url(#filter0_bi_281_45161)">
<path fill-rule="evenodd" clip-rule="evenodd" d="M6.18789 18.3172C6.17626 18.3173 6.16461 18.3174 6.15295 18.3174C4.41162 18.3174 3 16.9058 3 15.1645C3 13.4231 4.41162 12.0115 6.15295 12.0115C6.18326 12.0115 6.20709 11.9853 6.20404 11.9551C6.1881 11.7978 6.17994 11.6383 6.17994 11.4771C6.17994 8.76255 8.49022 6.56201 11.3401 6.56201C13.8548 6.56201 15.9493 8.27533 16.4072 10.5433C16.4684 10.8462 16.7618 11.0592 17.0699 11.0354C17.1636 11.0282 17.2583 11.0246 17.3538 11.0246C19.3677 11.0246 21.0003 12.6571 21.0003 14.671C21.0003 16.6848 19.3677 18.3174 17.3538 18.3174C17.2853 18.3174 17.2172 18.3155 17.1495 18.3118C17.1065 18.3155 17.063 18.3174 17.019 18.3174H6.21009C6.20268 18.3174 6.19528 18.3173 6.18789 18.3172Z" fill="#BFB5FF" fill-opacity="0.8"/>
</g>
</g>
<defs>
<filter id="filter0_bi_281_45161" x="1" y="4.56201" width="22.0002" height="15.7554" filterUnits="userSpaceOnUse" color-interpolation-filters="sRGB">
<feFlood flood-opacity="0" result="BackgroundImageFix"/>
<feGaussianBlur in="BackgroundImageFix" stdDeviation="1"/>
<feComposite in2="SourceAlpha" operator="in" result="effect1_backgroundBlur_281_45161"/>
<feBlend mode="normal" in="SourceGraphic" in2="effect1_backgroundBlur_281_45161" result="shape"/>
<feColorMatrix in="SourceAlpha" type="matrix" values="0 0 0 0 0 0 0 0 0 0 0 0 0 0 0 0 0 0 127 0" result="hardAlpha"/>
<feOffset dy="0.2"/>
<feGaussianBlur stdDeviation="0.05"/>
<feComposite in2="hardAlpha" operator="arithmetic" k2="-1" k3="1"/>
<feColorMatrix type="matrix" values="0 0 0 0 1 0 0 0 0 1 0 0 0 0 1 0 0 0 1 0"/>
<feBlend mode="normal" in2="shape" result="effect2_innerShadow_281_45161"/>
</filter>
<linearGradient id="paint0_linear_281_45161" x1="13.1977" y1="10.2385" x2="28.7968" y2="2.33498" gradientUnits="userSpaceOnUse">
<stop stop-color="#3F2DAF"/>
<stop offset="1" stop-color="#917FFB"/>
</linearGradient>
</defs>
</svg>
