<svg width="24" height="24" viewBox="0 0 24 24" fill="none" xmlns="http://www.w3.org/2000/svg">
<g style="mix-blend-mode:luminosity">
<rect x="11.6694" y="16.4583" width="13.4583" height="9.33069" rx="1.49536" transform="rotate(-90 11.6694 16.4583)" fill="url(#paint0_linear_281_45173)"/>
<g filter="url(#filter0_bi_281_45173)">
<path d="M8.18321 20.7519C8.7189 21.0825 9.37914 21.0825 9.91484 20.7519C11.5871 19.7197 15.098 17.1411 15.098 13.6848V9.77791C15.098 8.94422 14.5809 8.19797 13.8003 7.90525L9.75127 6.38686C9.2985 6.21707 8.79955 6.21707 8.34678 6.38686L4.29775 7.90525C3.51715 8.19797 3 8.94422 3 9.77791V13.6848C3 17.1411 6.51095 19.7197 8.18321 20.7519Z" fill="#B9DDFF" fill-opacity="0.8"/>
</g>
<path d="M9.04903 13.904C9.98975 13.904 10.7524 13.1414 10.7524 12.2006C10.7524 11.2599 9.98975 10.4973 9.04903 10.4973C8.10831 10.4973 7.3457 11.2599 7.3457 12.2006C7.3457 13.1414 8.10831 13.904 9.04903 13.904Z" fill="white"/>
<path d="M9.04931 13.1667C9.37944 13.1667 9.64744 13.4431 9.64744 13.7843V16.2544C9.64744 16.5953 9.37978 16.872 9.04931 16.872C8.71917 16.872 8.45117 16.5956 8.45117 16.2544V13.7843C8.45117 13.4435 8.71883 13.1667 9.04931 13.1667Z" fill="white"/>
</g>
<defs>
<filter id="filter0_bi_281_45173" x="1" y="4.25952" width="16.098" height="18.7404" filterUnits="userSpaceOnUse" color-interpolation-filters="sRGB">
<feFlood flood-opacity="0" result="BackgroundImageFix"/>
<feGaussianBlur in="BackgroundImageFix" stdDeviation="1"/>
<feComposite in2="SourceAlpha" operator="in" result="effect1_backgroundBlur_281_45173"/>
<feBlend mode="normal" in="SourceGraphic" in2="effect1_backgroundBlur_281_45173" result="shape"/>
<feColorMatrix in="SourceAlpha" type="matrix" values="0 0 0 0 0 0 0 0 0 0 0 0 0 0 0 0 0 0 127 0" result="hardAlpha"/>
<feOffset dy="0.2"/>
<feGaussianBlur stdDeviation="0.05"/>
<feComposite in2="hardAlpha" operator="arithmetic" k2="-1" k3="1"/>
<feColorMatrix type="matrix" values="0 0 0 0 1 0 0 0 0 1 0 0 0 0 1 0 0 0 1 0"/>
<feBlend mode="normal" in2="shape" result="effect2_innerShadow_281_45173"/>
</filter>
<linearGradient id="paint0_linear_281_45173" x1="22.4603" y1="20.3671" x2="12.402" y2="24.7659" gradientUnits="userSpaceOnUse">
<stop stop-color="#2567FF"/>
<stop offset="1" stop-color="#22A7FF"/>
</linearGradient>
</defs>
</svg>
