<svg id="svg" version="1.1" xmlns="http://www.w3.org/2000/svg" xmlns:xlink="http://www.w3.org/1999/xlink" width="400" height="400" viewBox="0, 0, 400,400"><g id="svgg"><path id="path0" d="M196.485 80.103 C 194.882 81.916,192.992 84.051,192.285 84.847 C 186.020 91.904,177.438 100.696,171.296 106.353 C 164.994 112.155,165.300 111.397,166.969 117.086 C 168.601 122.654,171.473 134.154,172.292 138.400 C 173.695 145.680,174.443 150.111,174.992 154.391 C 175.316 156.916,175.756 159.886,175.969 160.991 C 176.183 162.096,176.567 165.610,176.823 168.800 C 177.079 171.990,177.367 174.731,177.462 174.891 C 179.049 177.548,177.558 232.755,175.824 235.561 C 175.712 235.742,175.341 238.280,175.000 241.200 C 174.659 244.120,174.303 246.634,174.208 246.786 C 174.114 246.939,173.849 248.309,173.618 249.832 C 172.929 254.381,170.880 263.773,169.553 268.462 C 169.139 269.926,168.800 271.388,168.800 271.711 C 168.800 272.033,168.167 274.345,167.393 276.848 C 165.119 284.203,164.864 283.466,171.800 289.602 C 176.262 293.550,186.012 303.275,188.439 306.200 C 189.170 307.080,190.675 308.797,191.784 310.015 C 192.893 311.234,195.060 313.709,196.600 315.515 C 200.328 319.890,199.947 320.049,207.471 311.000 C 209.570 308.475,210.712 307.247,216.397 301.400 C 220.229 297.458,228.506 289.406,232.113 286.111 C 234.784 283.672,234.762 283.833,233.146 278.400 C 232.458 276.090,231.666 273.210,231.385 272.000 C 230.495 268.170,229.510 264.263,228.945 262.322 C 228.644 261.289,228.203 259.044,227.965 257.333 C 227.727 255.621,227.386 253.947,227.207 253.611 C 227.028 253.275,226.752 251.920,226.594 250.600 C 226.436 249.280,225.971 246.580,225.560 244.600 C 225.149 242.620,224.809 240.280,224.806 239.400 C 224.802 238.520,224.546 236.360,224.237 234.600 C 223.927 232.840,223.552 229.690,223.403 227.600 C 223.253 225.510,222.877 221.026,222.566 217.636 C 221.902 210.408,221.792 184.440,222.402 179.200 C 222.620 177.330,222.979 173.280,223.200 170.200 C 223.421 167.120,223.867 162.980,224.190 161.000 C 224.513 159.020,224.944 155.870,225.148 154.000 C 225.582 150.024,227.041 141.780,227.420 141.167 C 227.564 140.934,227.838 139.503,228.028 137.986 C 228.219 136.469,228.626 134.367,228.933 133.314 C 229.720 130.620,230.841 126.091,231.191 124.200 C 231.354 123.320,232.154 120.363,232.969 117.628 C 234.691 111.850,234.645 111.413,232.106 109.381 C 228.914 106.827,212.556 90.185,206.462 83.291 C 199.771 75.722,200.229 75.868,196.485 80.103 M258.578 132.679 C 258.175 133.515,257.623 135.460,257.351 137.000 C 257.080 138.540,256.577 141.420,256.234 143.400 C 255.891 145.380,255.344 148.170,255.017 149.600 C 254.690 151.030,254.312 153.640,254.176 155.400 C 254.041 157.160,253.764 159.259,253.560 160.064 C 253.356 160.869,252.922 164.739,252.596 168.664 C 252.270 172.589,251.830 177.690,251.619 180.000 C 251.123 185.424,251.102 209.295,251.588 215.000 C 253.141 233.232,253.919 240.167,254.995 245.400 C 255.311 246.940,255.684 249.100,255.823 250.200 C 255.962 251.300,256.314 253.190,256.605 254.400 C 256.895 255.610,257.259 257.590,257.414 258.800 C 257.671 260.812,258.910 264.000,259.434 264.000 C 259.870 264.000,261.485 263.036,265.800 260.200 C 270.445 257.147,282.268 250.000,282.674 250.000 C 282.806 250.000,284.013 249.324,285.357 248.497 C 286.701 247.671,290.479 245.647,293.754 244.001 C 301.287 240.213,301.067 240.554,299.564 235.000 C 297.956 229.063,297.295 225.604,295.737 215.000 C 294.764 208.373,294.527 189.753,295.346 184.345 C 295.692 182.065,296.088 178.850,296.226 177.200 C 296.365 175.550,296.712 173.210,296.997 172.000 C 297.283 170.790,297.633 168.990,297.775 168.000 C 297.916 167.010,298.279 165.300,298.582 164.200 C 301.349 154.127,301.819 155.365,293.705 151.353 C 284.535 146.819,273.511 140.394,264.413 134.281 C 259.243 130.808,259.452 130.865,258.578 132.679 M133.725 135.533 C 128.503 139.000,126.518 140.264,123.400 142.107 C 122.960 142.367,121.970 142.971,121.200 143.450 C 120.430 143.928,118.360 145.079,116.600 146.008 C 114.840 146.937,113.130 147.908,112.800 148.165 C 112.470 148.423,111.300 149.042,110.200 149.542 C 109.100 150.041,107.840 150.652,107.400 150.898 C 105.185 152.137,102.151 153.590,101.770 153.595 C 99.696 153.619,99.337 155.727,100.601 160.456 C 104.604 175.431,106.579 199.090,104.853 211.400 C 104.637 212.940,104.173 216.360,103.821 219.000 C 102.986 225.267,101.656 231.515,99.934 237.264 C 99.087 240.093,99.414 240.440,106.100 243.813 C 109.455 245.505,112.470 247.118,112.800 247.396 C 113.130 247.675,114.991 248.743,116.936 249.769 C 118.882 250.796,121.672 252.372,123.136 253.271 C 124.601 254.171,126.790 255.496,128.000 256.216 C 129.210 256.936,132.258 258.892,134.774 260.563 C 141.930 265.315,141.762 265.473,143.982 251.902 C 144.405 249.318,144.842 247.055,144.954 246.874 C 145.066 246.693,145.443 244.236,145.790 241.416 C 146.138 238.595,146.508 236.148,146.613 235.979 C 146.718 235.809,146.984 233.360,147.205 230.535 C 147.425 227.711,147.890 223.060,148.238 220.200 C 148.984 214.060,149.134 183.919,148.450 177.600 C 148.224 175.510,147.843 171.730,147.604 169.200 C 146.867 161.401,145.525 151.179,144.663 146.800 C 144.338 145.150,143.861 142.630,143.603 141.200 C 142.138 133.093,142.105 132.963,141.371 132.228 C 140.364 131.221,139.954 131.398,133.725 135.533 " stroke="none" fill="#6555fc" fill-rule="evenodd"></path><path id="path1" d="M0.000 200.000 L 0.000 400.000 200.000 400.000 L 400.000 400.000 400.000 200.000 L 400.000 0.000 200.000 0.000 L 0.000 0.000 0.000 200.000 M206.462 83.291 C 212.556 90.185,228.914 106.827,232.106 109.381 C 234.645 111.413,234.691 111.850,232.969 117.628 C 232.154 120.363,231.354 123.320,231.191 124.200 C 230.841 126.091,229.720 130.620,228.933 133.314 C 228.626 134.367,228.219 136.469,228.028 137.986 C 227.838 139.503,227.564 140.934,227.420 141.167 C 227.041 141.780,225.582 150.024,225.148 154.000 C 224.944 155.870,224.513 159.020,224.190 161.000 C 223.867 162.980,223.421 167.120,223.200 170.200 C 222.979 173.280,222.620 177.330,222.402 179.200 C 221.792 184.440,221.902 210.408,222.566 217.636 C 222.877 221.026,223.253 225.510,223.403 227.600 C 223.552 229.690,223.927 232.840,224.237 234.600 C 224.546 236.360,224.802 238.520,224.806 239.400 C 224.809 240.280,225.149 242.620,225.560 244.600 C 225.971 246.580,226.436 249.280,226.594 250.600 C 226.752 251.920,227.028 253.275,227.207 253.611 C 227.386 253.947,227.727 255.621,227.965 257.333 C 228.203 259.044,228.644 261.289,228.945 262.322 C 229.510 264.263,230.495 268.170,231.385 272.000 C 231.666 273.210,232.458 276.090,233.146 278.400 C 234.762 283.833,234.784 283.672,232.113 286.111 C 228.506 289.406,220.229 297.458,216.397 301.400 C 210.712 307.247,209.570 308.475,207.471 311.000 C 199.947 320.049,200.328 319.890,196.600 315.515 C 195.060 313.709,192.893 311.234,191.784 310.015 C 190.675 308.797,189.170 307.080,188.439 306.200 C 186.012 303.275,176.262 293.550,171.800 289.602 C 164.864 283.466,165.119 284.203,167.393 276.848 C 168.167 274.345,168.800 272.033,168.800 271.711 C 168.800 271.388,169.139 269.926,169.553 268.462 C 170.880 263.773,172.929 254.381,173.618 249.832 C 173.849 248.309,174.114 246.939,174.208 246.786 C 174.303 246.634,174.659 244.120,175.000 241.200 C 175.341 238.280,175.712 235.742,175.824 235.561 C 177.558 232.755,179.049 177.548,177.462 174.891 C 177.367 174.731,177.079 171.990,176.823 168.800 C 176.567 165.610,176.183 162.096,175.969 160.991 C 175.756 159.886,175.316 156.916,174.992 154.391 C 174.443 150.111,173.695 145.680,172.292 138.400 C 171.473 134.154,168.601 122.654,166.969 117.086 C 165.300 111.397,164.994 112.155,171.296 106.353 C 177.438 100.696,186.020 91.904,192.285 84.847 C 192.992 84.051,194.882 81.916,196.485 80.103 C 200.229 75.868,199.771 75.722,206.462 83.291 M264.413 134.281 C 273.511 140.394,284.535 146.819,293.705 151.353 C 301.819 155.365,301.349 154.127,298.582 164.200 C 298.279 165.300,297.916 167.010,297.775 168.000 C 297.633 168.990,297.283 170.790,296.997 172.000 C 296.712 173.210,296.365 175.550,296.226 177.200 C 296.088 178.850,295.692 182.065,295.346 184.345 C 294.527 189.753,294.764 208.373,295.737 215.000 C 297.295 225.604,297.956 229.063,299.564 235.000 C 301.067 240.554,301.287 240.213,293.754 244.001 C 290.479 245.647,286.701 247.671,285.357 248.497 C 284.013 249.324,282.806 250.000,282.674 250.000 C 282.268 250.000,270.445 257.147,265.800 260.200 C 261.485 263.036,259.870 264.000,259.434 264.000 C 258.910 264.000,257.671 260.812,257.414 258.800 C 257.259 257.590,256.895 255.610,256.605 254.400 C 256.314 253.190,255.962 251.300,255.823 250.200 C 255.684 249.100,255.311 246.940,254.995 245.400 C 253.919 240.167,253.141 233.232,251.588 215.000 C 251.102 209.295,251.123 185.424,251.619 180.000 C 251.830 177.690,252.270 172.589,252.596 168.664 C 252.922 164.739,253.356 160.869,253.560 160.064 C 253.764 159.259,254.041 157.160,254.176 155.400 C 254.312 153.640,254.690 151.030,255.017 149.600 C 255.344 148.170,255.891 145.380,256.234 143.400 C 256.577 141.420,257.080 138.540,257.351 137.000 C 257.939 133.672,259.086 131.071,259.838 131.359 C 260.128 131.471,262.187 132.785,264.413 134.281 M141.371 132.228 C 142.105 132.963,142.138 133.093,143.603 141.200 C 143.861 142.630,144.338 145.150,144.663 146.800 C 145.525 151.179,146.867 161.401,147.604 169.200 C 147.843 171.730,148.224 175.510,148.450 177.600 C 149.134 183.919,148.984 214.060,148.238 220.200 C 147.890 223.060,147.425 227.711,147.205 230.535 C 146.984 233.360,146.718 235.809,146.613 235.979 C 146.508 236.148,146.138 238.595,145.790 241.416 C 145.443 244.236,145.066 246.693,144.954 246.874 C 144.842 247.055,144.405 249.318,143.982 251.902 C 141.762 265.473,141.930 265.315,134.774 260.563 C 132.258 258.892,129.210 256.936,128.000 256.216 C 126.790 255.496,124.601 254.171,123.136 253.271 C 121.672 252.372,118.882 250.796,116.936 249.769 C 114.991 248.743,113.130 247.675,112.800 247.396 C 112.470 247.118,109.455 245.505,106.100 243.813 C 99.414 240.440,99.087 240.093,99.934 237.264 C 101.656 231.515,102.986 225.267,103.821 219.000 C 104.173 216.360,104.637 212.940,104.853 211.400 C 106.579 199.090,104.604 175.431,100.601 160.456 C 99.337 155.727,99.696 153.619,101.770 153.595 C 102.151 153.590,105.185 152.137,107.400 150.898 C 107.840 150.652,109.100 150.041,110.200 149.542 C 111.300 149.042,112.470 148.423,112.800 148.165 C 113.130 147.908,114.840 146.937,116.600 146.008 C 118.360 145.079,120.430 143.928,121.200 143.450 C 121.970 142.971,122.960 142.367,123.400 142.107 C 126.518 140.264,128.503 139.000,133.725 135.533 C 139.954 131.398,140.364 131.221,141.371 132.228 " stroke="none" fill="#fbfbfc" fill-rule="evenodd"></path></g></svg>