<svg width="102" height="102" viewBox="0 0 102 102" fill="none" xmlns="http://www.w3.org/2000/svg">
<path fill-rule="evenodd" clip-rule="evenodd" d="M29.2495 33.2067C29.2495 21.1382 39.033 11.3547 51.1015 11.3547C63.1701 11.3547 72.9535 21.1382 72.9535 33.2067V43.1125H76.5006C79.8143 43.1125 82.5006 45.7988 82.5006 49.1125V84.5624C82.5006 87.8761 79.8143 90.5624 76.5006 90.5624H24.6416C21.3279 90.5624 18.6416 87.8761 18.6416 84.5624V49.1125C18.6416 45.7988 21.3279 43.1125 24.6416 43.1125H29.2495V33.2067ZM63.8574 44.6933V44.6125H24.6416C22.1563 44.6125 20.1416 46.6273 20.1416 49.1125V84.5624C20.1416 87.0476 22.1563 89.0624 24.6416 89.0624H76.5006C78.9858 89.0624 81.0006 87.0476 81.0006 84.5624V49.1125C81.0006 46.6273 78.9858 44.6125 76.5006 44.6125H72.9535V44.6933H63.8574ZM65.3574 43.1125H71.4535V33.2067C71.4535 21.9666 62.3416 12.8547 51.1015 12.8547C39.8614 12.8547 30.7495 21.9666 30.7495 33.2067V43.0204H36.8456V33.2067C36.8456 25.3334 43.2282 18.9508 51.1015 18.9508C58.9748 18.9508 65.3574 25.3334 65.3574 33.2067V43.1125ZM38.3456 33.2067V43.1125H63.8574V33.2067C63.8574 26.1618 58.1464 20.4508 51.1015 20.4508C44.0566 20.4508 38.3456 26.1618 38.3456 33.2067ZM56.7981 62.886C56.7981 65.2964 55.301 67.3571 53.186 68.1891V74.4011C53.186 75.5524 52.2528 76.4856 51.1016 76.4856C49.9503 76.4856 49.0171 75.5524 49.0171 74.4011V68.1892C46.9019 67.3573 45.4048 65.2965 45.4048 62.886C45.4048 59.7398 47.9553 57.1893 51.1014 57.1893C54.2476 57.1893 56.7981 59.7398 56.7981 62.886Z" fill="url(#paint0_linear_2124_918)"/>
<defs>
<linearGradient id="paint0_linear_2124_918" x1="50.5711" y1="11.3547" x2="50.5711" y2="90.5624" gradientUnits="userSpaceOnUse">
<stop stop-color="#572A86"/>
<stop offset="1" stop-color="#842A86"/>
</linearGradient>
</defs>
</svg>
