<svg width="28" height="28" viewBox="0 0 28 28" fill="none" xmlns="http://www.w3.org/2000/svg">
<path fill-rule="evenodd" clip-rule="evenodd" d="M13.9345 1.2395C10.1613 1.2395 7.10254 4.29829 7.10254 8.07149V11.6667H5.8335C3.9005 11.6667 2.3335 13.2338 2.3335 15.1667V23.3334C2.3335 25.2664 3.9005 26.8334 5.8335 26.8334H22.1668C24.0998 26.8334 25.6668 25.2664 25.6668 23.3334V15.1667C25.6668 13.2338 24.0998 11.6667 22.1668 11.6667H9.20254V8.07149C9.20254 5.45808 11.3211 3.3395 13.9345 3.3395H14.1936C16.6639 3.3395 18.6665 5.34207 18.6665 7.81236C18.6665 8.39226 19.1366 8.86236 19.7165 8.86236C20.2964 8.86236 20.7665 8.39226 20.7665 7.81236C20.7665 4.18227 17.8237 1.2395 14.1936 1.2395H13.9345ZM4.66683 15.1667C4.66683 14.5224 5.18916 14.0001 5.8335 14.0001H22.1668C22.8112 14.0001 23.3335 14.5224 23.3335 15.1667V23.3334C23.3335 23.9777 22.8112 24.5001 22.1668 24.5001H5.8335C5.18916 24.5001 4.66683 23.9777 4.66683 23.3334V15.1667Z" fill="url(#paint0_linear_2087_26603)"/>
<defs>
<linearGradient id="paint0_linear_2087_26603" x1="24.0004" y1="-10.904" x2="-14.97" y2="42.5705" gradientUnits="userSpaceOnUse">
<stop stop-color="white"/>
<stop offset="1" stop-color="white" stop-opacity="0"/>
</linearGradient>
</defs>
</svg>
