<svg width="28" height="29" viewBox="0 0 28 29" fill="none" xmlns="http://www.w3.org/2000/svg">
<path fill-rule="evenodd" clip-rule="evenodd" d="M11.3251 5.26187C11.7807 5.71749 11.7807 6.45618 11.3251 6.91179L6.65845 11.5785C6.20284 12.0341 5.46415 12.0341 5.00854 11.5785L2.6752 9.24512C2.21959 8.78951 2.21959 8.05082 2.6752 7.59521C3.13082 7.1396 3.86951 7.1396 4.32512 7.59521L5.8335 9.10358L9.6752 5.26187C10.1308 4.80626 10.8695 4.80626 11.3251 5.26187ZM11.3251 16.9285C11.7807 17.3841 11.7807 18.1228 11.3251 18.5784L6.65845 23.2451C6.20284 23.7007 5.46415 23.7007 5.00854 23.2451L2.6752 20.9117C2.21959 20.4561 2.21959 19.7174 2.6752 19.2618C3.13082 18.8062 3.86951 18.8062 4.32512 19.2618L5.8335 20.7702L9.6752 16.9285C10.1308 16.4729 10.8695 16.4729 11.3251 16.9285ZM15.1668 6.08679C14.5225 6.08679 14.0001 6.60913 14.0001 7.25346C14.0001 7.89779 14.5225 8.42013 15.1668 8.42013H24.5001C25.1445 8.42013 25.6668 7.89779 25.6668 7.25346C25.6668 6.60913 25.1445 6.08679 24.5001 6.08679H15.1668ZM14.0001 14.2535C14.0001 13.6091 14.5225 13.0868 15.1668 13.0868H24.5001C25.1445 13.0868 25.6668 13.6091 25.6668 14.2535C25.6668 14.8978 25.1445 15.4201 24.5001 15.4201H15.1668C14.5225 15.4201 14.0001 14.8978 14.0001 14.2535ZM15.1668 20.0868C14.5225 20.0868 14.0001 20.6091 14.0001 21.2535C14.0001 21.8978 14.5225 22.4201 15.1668 22.4201H24.5001C25.1445 22.4201 25.6668 21.8978 25.6668 21.2535C25.6668 20.6091 25.1445 20.0868 24.5001 20.0868H15.1668Z" fill="url(#paint0_linear_2087_26611)"/>
<defs>
<linearGradient id="paint0_linear_2087_26611" x1="24.0004" y1="-3.93653" x2="-0.7474" y2="42.624" gradientUnits="userSpaceOnUse">
<stop stop-color="white"/>
<stop offset="1" stop-color="white" stop-opacity="0"/>
</linearGradient>
</defs>
</svg>
