<svg width="28" height="28" viewBox="0 0 28 28" fill="none" xmlns="http://www.w3.org/2000/svg">
<path fill-rule="evenodd" clip-rule="evenodd" d="M9.51264 2.31004C9.34573 1.6877 8.70591 1.31851 8.08358 1.48543C7.46124 1.65234 7.09205 2.29216 7.25896 2.9145L8.16546 6.29433C8.33238 6.91667 8.9722 7.28586 9.59453 7.11894C10.2169 6.95203 10.5861 6.31221 10.4191 5.68987L9.51264 2.31004ZM17.0998 5.55006C17.5554 5.09445 17.5554 4.35576 17.0998 3.90014C16.6441 3.44453 15.9055 3.44453 15.4498 3.90014L12.9742 6.37581C12.5186 6.83142 12.5186 7.57011 12.9742 8.02573C13.4298 8.48134 14.1685 8.48134 14.6241 8.02573L17.0998 5.55006ZM2.91293 7.25924C2.29058 7.09237 1.6508 7.46162 1.48394 8.08397C1.31708 8.70632 1.68632 9.34611 2.30867 9.51297L5.68967 10.4195C6.31202 10.5863 6.95181 10.2171 7.11867 9.59473C7.28553 8.97238 6.91629 8.3326 6.29393 8.16574L2.91293 7.25924ZM8.02465 14.624C8.48005 14.1682 8.4797 13.4295 8.02387 12.9741C7.56805 12.5187 6.82935 12.519 6.37396 12.9749L3.90062 15.4505C3.44523 15.9064 3.44558 16.6451 3.9014 17.1004C4.35723 17.5558 5.09592 17.5555 5.55132 17.0997L8.02465 14.624ZM9.67485 9.67513C10.0091 9.34084 10.5121 9.24133 10.9485 9.42316L24.9485 15.2565C25.3966 15.4432 25.6822 15.8877 25.6658 16.3728C25.6494 16.8579 25.3344 17.2822 24.8748 17.4382L20.5544 18.9048L24.5244 22.8748C24.9801 23.3304 24.9801 24.0691 24.5244 24.5247C24.0688 24.9803 23.3301 24.9803 22.8745 24.5247L18.9045 20.5547L17.4379 24.8751C17.2819 25.3347 16.8576 25.6497 16.3725 25.6661C15.8875 25.6825 15.4429 25.3968 15.2562 24.9488L9.42289 10.9488C9.24106 10.5124 9.34056 10.0094 9.67485 9.67513ZM12.6665 12.6668L16.2216 21.1991L17.2981 18.0281C17.4146 17.6846 17.6843 17.4149 18.0278 17.2983L21.1988 16.2219L12.6665 12.6668Z" fill="url(#paint0_linear_2087_26636)"/>
<defs>
<linearGradient id="paint0_linear_2087_26636" x1="23.9366" y1="-10.047" x2="-11.7777" y2="43.7099" gradientUnits="userSpaceOnUse">
<stop stop-color="white"/>
<stop offset="1" stop-color="white" stop-opacity="0"/>
</linearGradient>
</defs>
</svg>
