<svg width="28" height="29" viewBox="0 0 28 29" fill="none" xmlns="http://www.w3.org/2000/svg">
<path fill-rule="evenodd" clip-rule="evenodd" d="M12.1979 2.30954C12.7422 1.98272 13.365 1.81006 13.9998 1.81006C14.6347 1.81006 15.2575 1.98272 15.8018 2.30954L15.802 2.30971L15.8023 2.30989L19.3018 4.40954L19.3023 4.40989C19.819 4.72031 20.2468 5.1589 20.5442 5.68317C20.8416 6.20745 20.9985 6.79964 20.9998 7.40239L20.9998 7.40495L20.9998 11.8431L25.1355 14.3265L25.1357 14.3266C25.6523 14.637 26.0801 15.0756 26.3775 15.5999C26.6749 16.1242 26.8319 16.7164 26.8332 17.3191L26.8332 17.3217L26.8332 21.1017L26.8332 21.1042C26.8319 21.707 26.6749 22.2992 26.3775 22.8234C26.0801 23.3477 25.6523 23.7863 25.1357 24.0967L25.1351 24.0971L21.6357 26.1967L21.6351 26.1971C21.1295 26.5007 20.556 26.6713 19.968 26.694C19.9238 26.6991 19.8788 26.7017 19.8332 26.7017C19.7876 26.7017 19.7426 26.6991 19.6983 26.694C19.1106 26.6713 18.5372 26.5008 18.0316 26.1973L18.2437 23.6039L18.6665 23.8574V20.1639L18.5315 20.0829L18.2437 23.6039L18.2429 23.6034L18.5309 20.0826L15.1665 18.0639V21.7592L18.2429 23.6034L18.0307 26.1967L13.9998 23.7803L9.969 26.1967L9.96824 26.1972L9.96804 26.1973C9.46251 26.5008 8.88914 26.6713 8.30138 26.694C8.25713 26.6991 8.21213 26.7017 8.16651 26.7017C8.1209 26.7017 8.07591 26.6991 8.03166 26.694C7.44374 26.6713 6.87022 26.5007 6.36459 26.1971L6.364 26.1967L2.86459 24.0971L2.86401 24.0967C2.34733 23.7863 1.91958 23.3477 1.62218 22.8234C1.32479 22.2992 1.16783 21.707 1.16651 21.1042L1.1665 21.1017V17.3217L1.16651 17.3191C1.16783 16.7164 1.32479 16.1242 1.62218 15.5999C1.91958 15.0756 2.34733 14.637 2.86401 14.3266L2.86423 14.3265L6.99985 11.8431V7.40495L6.99985 7.40239C7.00117 6.79964 7.15813 6.20745 7.45553 5.68317C7.75292 5.1589 8.18068 4.72031 8.69735 4.40989L8.69794 4.40954L12.1973 2.30989L12.1979 2.30954ZM18.999 14.3643L18.9988 14.3645L18.9988 14.3645L16.2674 16.0033L18.7432 17.4888L18.9988 14.3645L18.999 14.3644L18.7436 17.489L19.8326 18.1424L23.3929 16.0018L19.8329 13.864L18.999 14.3644L18.999 14.3643ZM13.9998 4.14339C13.7882 4.14339 13.5805 4.20099 13.399 4.31L13.3984 4.31036L10.4404 6.08516L13.9998 8.22532L17.5593 6.08516L14.6013 4.31036L14.6007 4.31C14.4192 4.20099 14.2115 4.14339 13.9998 4.14339ZM15.1665 10.2465V13.9427L18.6665 11.8427V8.14204L15.1665 10.2465ZM12.8332 13.9427V10.2465L9.33318 8.14205V11.8427L12.8332 13.9427ZM20.9999 23.8571L23.934 22.0966L23.9345 22.0963L23.9346 22.0963C24.1066 21.9928 24.2489 21.8467 24.348 21.6722C24.4469 21.4977 24.4992 21.3007 24.4998 21.1002V18.0588L20.9999 20.1632V23.8571ZM9.33318 23.8574L12.8332 21.7592V18.0639L9.33318 20.1639V23.8574ZM6.99985 20.1632L3.49984 18.0588V21.1002C3.50046 21.3007 3.55277 21.4977 3.65173 21.6722C3.75075 21.8467 3.89312 21.9928 4.06508 22.0963L4.06522 22.0963L4.06567 22.0966L6.99985 23.8571V20.1632ZM8.16675 13.864L11.7322 16.0033L8.16711 18.1424L4.60684 16.0018L8.16675 13.864Z" fill="url(#paint0_linear_2087_26618)"/>
<defs>
<linearGradient id="paint0_linear_2087_26618" x1="25.0001" y1="-10.0002" x2="-11.2551" y2="46.2674" gradientUnits="userSpaceOnUse">
<stop stop-color="white"/>
<stop offset="1" stop-color="white" stop-opacity="0"/>
</linearGradient>
</defs>
</svg>
