<svg width="2439" height="1580" viewBox="0 0 2439 1580" fill="none" xmlns="http://www.w3.org/2000/svg">
<g opacity="0.6" filter="url(#filter0_f_3959_5742)">
<ellipse cx="1048.8" cy="690.567" rx="500.549" ry="333.988" fill="#5E19F0"/>
</g>
<g opacity="0.6" filter="url(#filter1_f_3959_5742)">
<ellipse cx="1535.3" cy="940.236" rx="555.085" ry="202.467" transform="rotate(10.9608 1535.3 940.236)" fill="#5E19F0"/>
</g>
<g opacity="0.6" filter="url(#filter2_f_3959_5742)">
<ellipse cx="1062.64" cy="981.887" rx="335.803" ry="224.062" transform="rotate(20.5639 1062.64 981.887)" fill="#5E19F0"/>
</g>
<g opacity="0.6" filter="url(#filter3_f_3959_5742)">
<circle cx="661.598" cy="799.9" r="304.88" fill="#3719F0"/>
</g>
<g filter="url(#filter4_f_3959_5742)">
<path d="M873.881 640.458C710.663 639.136 321.641 707.861 349.394 1108.32C349.394 1108.32 1924.18 1123.87 1951.66 1121.76C1986.03 1119.11 2220.59 830.113 2230.51 820.201C2240.42 810.289 2284.69 720.417 2000.55 489.13C1716.4 257.842 1476.53 435.768 1310.01 552.568C1143.49 669.369 1037.1 641.779 873.881 640.458Z" fill="url(#paint0_linear_3959_5742)"/>
</g>
<mask id="mask0_3959_5742" style="mask-type:alpha" maskUnits="userSpaceOnUse" x="1253" y="362" width="739" height="641">
<ellipse cx="1622.73" cy="682.895" rx="419.253" ry="250.734" transform="rotate(-36.2854 1622.73 682.895)" fill="url(#paint1_radial_3959_5742)"/>
</mask>
<g mask="url(#mask0_3959_5742)">
<path d="M1255.58 907.088C1203.28 927.163 1191.79 947.727 1160.85 995.923L1664.29 1182.96C1792.57 987.791 2014.9 614.046 1926.62 578.713C1834.24 541.741 1693.4 557.14 1607.03 599.462C1520.66 641.784 1451.06 783.081 1418.36 833.369C1388.06 879.958 1307.89 887.014 1255.58 907.088Z" fill="#7B5FE7"/>
<g filter="url(#filter5_f_3959_5742)">
<path d="M1255.58 906.223C1203.28 926.298 1191.79 946.862 1160.85 995.058L1664.29 1182.09C1792.57 986.925 1983.3 556.31 1895.02 520.977C1825.21 493.038 1698.32 560.193 1633.28 598.782C1612.25 611.257 1627.13 625.396 1613.96 626.285C1517.99 632.763 1451.06 782.216 1418.36 832.503C1388.06 879.093 1307.89 886.148 1255.58 906.223Z" fill="#7B5FE7"/>
</g>
<g filter="url(#filter6_f_3959_5742)">
<path d="M1241.74 900.166C1189.44 920.241 1177.95 940.805 1147.01 989.001L1664.29 1182.96C1792.57 987.791 1904.15 593.28 1815.86 557.947C1733.05 524.805 1685.1 564.155 1618.14 602.61C1610.4 607.053 1622.9 608.923 1613.96 613.306C1527.59 655.628 1437.22 776.159 1404.52 826.447C1374.22 873.036 1294.04 880.092 1241.74 900.166Z" fill="#7B5FE7"/>
</g>
<g filter="url(#filter7_f_3959_5742)">
<path d="M1227.9 893.244C1175.59 913.319 1164.1 933.883 1133.16 982.079L1664.29 1182.96C1792.57 987.791 2035.67 544.826 1947.38 509.493C1872.87 479.671 1741.05 552.122 1659.24 584.06C1639.62 591.717 1628.06 606.852 1611.36 615.037C1524.99 657.359 1423.37 769.237 1390.67 819.525C1360.38 866.114 1280.2 873.17 1227.9 893.244Z" fill="#7B5FE7"/>
</g>
<g filter="url(#filter8_f_3959_5742)">
<path d="M1183.77 874.339C1131.46 894.413 1119.97 914.977 1089.03 963.174L1634 1177.9C1762.28 982.729 1873.86 588.219 1785.58 552.886C1717.11 525.483 1665.04 581.867 1632.41 602.138C1621.02 609.217 1653.7 621.347 1628.95 621.347C1533.34 621.347 1551.42 721.984 1394.04 788.341C1342.83 809.932 1236.07 854.264 1183.77 874.339Z" fill="#7B5FE7"/>
</g>
</g>
<g opacity="0.6" filter="url(#filter9_f_3959_5742)">
<circle cx="1721.97" cy="807.809" r="142.334" fill="#6B19F0"/>
</g>
<g opacity="0.3" filter="url(#filter10_f_3959_5742)">
<ellipse cx="1128.57" cy="761.559" rx="462.854" ry="206.62" transform="rotate(20.3891 1128.57 761.559)" fill="#AE00FF"/>
</g>
<mask id="mask1_3959_5742" style="mask-type:alpha" maskUnits="userSpaceOnUse" x="6" y="442" width="1274" height="675">
<path d="M191.473 1116.86C143.917 842.405 10.0562 597.369 6.58482 583.894L1279.96 442.106L1219.37 1104.88L191.473 1116.86Z" fill="url(#paint2_linear_3959_5742)"/>
</mask>
<g mask="url(#mask1_3959_5742)">
<path d="M571.65 638.393C687.583 618.108 796.64 667.259 807.025 726.614C817.41 785.969 784.109 872.072 659.723 893.836C598.083 904.621 530.184 957.393 451.779 940.649C371.966 923.604 374.753 839.686 369.515 809.744C359.129 750.39 455.717 658.678 571.65 638.393Z" fill="#8A4DEE"/>
<g filter="url(#filter11_f_3959_5742)">
<path d="M571.15 643.72C695.485 621.965 794.426 663.304 803.353 714.323C812.28 765.342 777.084 840.504 652.748 862.259C591.134 873.039 522.522 921.561 444.874 908.963C365.83 896.138 370.6 823.589 366.097 797.852C357.17 746.833 446.814 665.474 571.15 643.72Z" fill="#8A4DEE"/>
</g>
<g filter="url(#filter12_f_3959_5742)">
<path d="M574.919 643.061C714.275 618.679 826.285 671.389 837.29 734.29C848.296 797.19 810.161 888.935 670.805 913.318C601.747 925.401 526.567 989.615 439.04 972.647C349.941 955.375 352.991 860.943 347.439 829.213C336.433 766.312 435.563 667.444 574.919 643.061Z" fill="#8A4DEE"/>
</g>
<g filter="url(#filter13_f_3959_5742)">
<path d="M592.306 647.697C767.06 633.022 923.851 689.668 936.732 763.285C949.612 836.902 876.21 931.765 709.08 961.007C626.259 975.498 533.831 1074.36 429.018 1054.92C322.323 1035.13 327.531 930.736 321.034 893.6C308.153 819.983 389.863 664.697 592.306 647.697Z" fill="#8A4DEE"/>
</g>
<g filter="url(#filter14_f_3959_5742)">
<path d="M655.482 667.347C835.437 635.861 1006.95 703.603 1019.55 775.579C1032.14 847.555 951.727 941.816 771.772 973.303C682.596 988.906 579.125 1035.32 466.905 1018.01C352.669 1000.4 360.017 897.942 353.664 861.634C341.07 789.658 475.527 698.834 655.482 667.347Z" fill="#8A4DEE"/>
</g>
<g filter="url(#filter15_f_3959_5742)">
<path d="M730.555 683.822C916.521 651.284 1093.59 720.283 1106.47 793.9C1119.35 867.517 1036.11 964.103 850.142 996.641C757.987 1012.77 651.008 1060.44 535.105 1042.94C417.12 1025.12 424.896 920.28 418.398 883.144C405.518 809.527 544.588 716.361 730.555 683.822Z" fill="#8A4DEE"/>
</g>
<g filter="url(#filter16_f_3959_5742)">
<path d="M588.635 696.589C751.356 668.118 908.415 740.618 921.295 814.235C934.176 887.852 863.077 982.313 700.356 1010.78C619.72 1024.89 525.239 1061.61 423.022 1041.71C318.969 1021.45 323.577 917.169 317.079 880.033C304.199 806.416 425.914 725.06 588.635 696.589Z" fill="#8A4DEE"/>
</g>
</g>
<g opacity="0.6" filter="url(#filter17_f_3959_5742)">
<ellipse cx="1390.84" cy="770.24" rx="142.334" ry="42.1529" transform="rotate(-41.2443 1390.84 770.24)" fill="#28009B"/>
</g>
<defs>
<filter id="filter0_f_3959_5742" x="191.768" y="0.094635" width="1714.07" height="1380.95" filterUnits="userSpaceOnUse" color-interpolation-filters="sRGB">
<feFlood flood-opacity="0" result="BackgroundImageFix"/>
<feBlend mode="normal" in="SourceGraphic" in2="BackgroundImageFix" result="shape"/>
<feGaussianBlur stdDeviation="178.242" result="effect1_foregroundBlur_3959_5742"/>
</filter>
<filter id="filter1_f_3959_5742" x="632.48" y="358.651" width="1805.65" height="1163.17" filterUnits="userSpaceOnUse" color-interpolation-filters="sRGB">
<feFlood flood-opacity="0" result="BackgroundImageFix"/>
<feBlend mode="normal" in="SourceGraphic" in2="BackgroundImageFix" result="shape"/>
<feGaussianBlur stdDeviation="178.242" result="effect1_foregroundBlur_3959_5742"/>
</filter>
<filter id="filter2_f_3959_5742" x="381.969" y="384.689" width="1361.34" height="1194.4" filterUnits="userSpaceOnUse" color-interpolation-filters="sRGB">
<feFlood flood-opacity="0" result="BackgroundImageFix"/>
<feBlend mode="normal" in="SourceGraphic" in2="BackgroundImageFix" result="shape"/>
<feGaussianBlur stdDeviation="178.242" result="effect1_foregroundBlur_3959_5742"/>
</filter>
<filter id="filter3_f_3959_5742" x="0.233185" y="138.535" width="1322.73" height="1322.73" filterUnits="userSpaceOnUse" color-interpolation-filters="sRGB">
<feFlood flood-opacity="0" result="BackgroundImageFix"/>
<feBlend mode="normal" in="SourceGraphic" in2="BackgroundImageFix" result="shape"/>
<feGaussianBlur stdDeviation="178.242" result="effect1_foregroundBlur_3959_5742"/>
</filter>
<filter id="filter4_f_3959_5742" x="213.004" y="241.5" width="2160.93" height="1015.44" filterUnits="userSpaceOnUse" color-interpolation-filters="sRGB">
<feFlood flood-opacity="0" result="BackgroundImageFix"/>
<feBlend mode="normal" in="SourceGraphic" in2="BackgroundImageFix" result="shape"/>
<feGaussianBlur stdDeviation="67.4898" result="effect1_foregroundBlur_3959_5742"/>
</filter>
<filter id="filter5_f_3959_5742" x="1143.55" y="497.053" width="791.327" height="702.345" filterUnits="userSpaceOnUse" color-interpolation-filters="sRGB">
<feFlood flood-opacity="0" result="BackgroundImageFix"/>
<feBlend mode="normal" in="SourceGraphic" in2="BackgroundImageFix" result="shape"/>
<feGaussianBlur stdDeviation="8.65254" result="effect1_foregroundBlur_3959_5742"/>
</filter>
<filter id="filter6_f_3959_5742" x="1122.78" y="521.278" width="748.913" height="685.908" filterUnits="userSpaceOnUse" color-interpolation-filters="sRGB">
<feFlood flood-opacity="0" result="BackgroundImageFix"/>
<feBlend mode="normal" in="SourceGraphic" in2="BackgroundImageFix" result="shape"/>
<feGaussianBlur stdDeviation="12.1136" result="effect1_foregroundBlur_3959_5742"/>
</filter>
<filter id="filter7_f_3959_5742" x="1102.01" y="471.294" width="895.387" height="742.814" filterUnits="userSpaceOnUse" color-interpolation-filters="sRGB">
<feFlood flood-opacity="0" result="BackgroundImageFix"/>
<feBlend mode="normal" in="SourceGraphic" in2="BackgroundImageFix" result="shape"/>
<feGaussianBlur stdDeviation="15.5746" result="effect1_foregroundBlur_3959_5742"/>
</filter>
<filter id="filter8_f_3959_5742" x="1044.04" y="500.525" width="818.133" height="722.366" filterUnits="userSpaceOnUse" color-interpolation-filters="sRGB">
<feFlood flood-opacity="0" result="BackgroundImageFix"/>
<feBlend mode="normal" in="SourceGraphic" in2="BackgroundImageFix" result="shape"/>
<feGaussianBlur stdDeviation="22.4966" result="effect1_foregroundBlur_3959_5742"/>
</filter>
<filter id="filter9_f_3959_5742" x="1396.2" y="482.041" width="651.537" height="651.536" filterUnits="userSpaceOnUse" color-interpolation-filters="sRGB">
<feFlood flood-opacity="0" result="BackgroundImageFix"/>
<feBlend mode="normal" in="SourceGraphic" in2="BackgroundImageFix" result="shape"/>
<feGaussianBlur stdDeviation="91.7169" result="effect1_foregroundBlur_3959_5742"/>
</filter>
<filter id="filter10_f_3959_5742" x="505.284" y="326.1" width="1246.58" height="870.917" filterUnits="userSpaceOnUse" color-interpolation-filters="sRGB">
<feFlood flood-opacity="0" result="BackgroundImageFix"/>
<feBlend mode="normal" in="SourceGraphic" in2="BackgroundImageFix" result="shape"/>
<feGaussianBlur stdDeviation="91.7169" result="effect1_foregroundBlur_3959_5742"/>
</filter>
<filter id="filter11_f_3959_5742" x="358.96" y="631.261" width="452.228" height="286.298" filterUnits="userSpaceOnUse" color-interpolation-filters="sRGB">
<feFlood flood-opacity="0" result="BackgroundImageFix"/>
<feBlend mode="normal" in="SourceGraphic" in2="BackgroundImageFix" result="shape"/>
<feGaussianBlur stdDeviation="3.262" result="effect1_foregroundBlur_3959_5742"/>
</filter>
<filter id="filter12_f_3959_5742" x="323.771" y="614.147" width="538.134" height="384.17" filterUnits="userSpaceOnUse" color-interpolation-filters="sRGB">
<feFlood flood-opacity="0" result="BackgroundImageFix"/>
<feBlend mode="normal" in="SourceGraphic" in2="BackgroundImageFix" result="shape"/>
<feGaussianBlur stdDeviation="11.417" result="effect1_foregroundBlur_3959_5742"/>
</filter>
<filter id="filter13_f_3959_5742" x="287.107" y="612.749" width="683.684" height="477.312" filterUnits="userSpaceOnUse" color-interpolation-filters="sRGB">
<feFlood flood-opacity="0" result="BackgroundImageFix"/>
<feBlend mode="normal" in="SourceGraphic" in2="BackgroundImageFix" result="shape"/>
<feGaussianBlur stdDeviation="16.31" result="effect1_foregroundBlur_3959_5742"/>
</filter>
<filter id="filter14_f_3959_5742" x="264.773" y="571.35" width="844.125" height="538.546" filterUnits="userSpaceOnUse" color-interpolation-filters="sRGB">
<feFlood flood-opacity="0" result="BackgroundImageFix"/>
<feBlend mode="normal" in="SourceGraphic" in2="BackgroundImageFix" result="shape"/>
<feGaussianBlur stdDeviation="44.037" result="effect1_foregroundBlur_3959_5742"/>
</filter>
<filter id="filter15_f_3959_5742" x="199.017" y="456.995" width="1127.3" height="808.297" filterUnits="userSpaceOnUse" color-interpolation-filters="sRGB">
<feFlood flood-opacity="0" result="BackgroundImageFix"/>
<feBlend mode="normal" in="SourceGraphic" in2="BackgroundImageFix" result="shape"/>
<feGaussianBlur stdDeviation="109.277" result="effect1_foregroundBlur_3959_5742"/>
</filter>
<filter id="filter16_f_3959_5742" x="215.023" y="589.132" width="808.873" height="559.48" filterUnits="userSpaceOnUse" color-interpolation-filters="sRGB">
<feFlood flood-opacity="0" result="BackgroundImageFix"/>
<feBlend mode="normal" in="SourceGraphic" in2="BackgroundImageFix" result="shape"/>
<feGaussianBlur stdDeviation="50.5609" result="effect1_foregroundBlur_3959_5742"/>
</filter>
<filter id="filter17_f_3959_5742" x="1096.81" y="487.734" width="588.064" height="565.012" filterUnits="userSpaceOnUse" color-interpolation-filters="sRGB">
<feFlood flood-opacity="0" result="BackgroundImageFix"/>
<feBlend mode="normal" in="SourceGraphic" in2="BackgroundImageFix" result="shape"/>
<feGaussianBlur stdDeviation="91.7169" result="effect1_foregroundBlur_3959_5742"/>
</filter>
<linearGradient id="paint0_linear_3959_5742" x1="1293.47" y1="376.479" x2="1293.47" y2="1121.96" gradientUnits="userSpaceOnUse">
<stop stop-color="#6849E1"/>
<stop offset="1" stop-color="#3E1088"/>
</linearGradient>
<radialGradient id="paint1_radial_3959_5742" cx="0" cy="0" r="1" gradientUnits="userSpaceOnUse" gradientTransform="translate(1694.59 642.744) rotate(103.875) scale(299.627 482.187)">
<stop offset="0.120131" stop-color="#C4C4C4"/>
<stop offset="0.692585" stop-color="#C4C4C4" stop-opacity="0"/>
</radialGradient>
<linearGradient id="paint2_linear_3959_5742" x1="527.289" y1="672.561" x2="620.513" y2="1122.03" gradientUnits="userSpaceOnUse">
<stop stop-color="#C4C4C4"/>
<stop offset="1" stop-color="#C4C4C4" stop-opacity="0"/>
</linearGradient>
</defs>
</svg>
