<svg width="1243" height="806" viewBox="0 0 1243 806" fill="none" xmlns="http://www.w3.org/2000/svg">
<g opacity="0.6" filter="url(#filter0_f_3959_6712)">
<ellipse cx="534.549" cy="352.611" rx="255.158" ry="170.252" fill="#5E19F0"/>
</g>
<g opacity="0.6" filter="url(#filter1_f_3959_6712)">
<ellipse cx="782.546" cy="479.881" rx="282.958" ry="103.209" transform="rotate(10.9608 782.546 479.881)" fill="#5E19F0"/>
</g>
<g opacity="0.6" filter="url(#filter2_f_3959_6712)">
<ellipse cx="541.6" cy="501.113" rx="171.177" ry="114.217" transform="rotate(20.5639 541.6 501.113)" fill="#5E19F0"/>
</g>
<g opacity="0.6" filter="url(#filter3_f_3959_6712)">
<circle cx="337.168" cy="408.344" r="155.414" fill="#3719F0"/>
</g>
<g filter="url(#filter4_f_3959_6712)">
<path d="M445.382 327.067C362.181 326.393 163.874 361.426 178.022 565.562C178.022 565.562 980.776 573.491 994.789 572.413C1012.3 571.065 1131.88 423.745 1136.93 418.692C1141.98 413.639 1164.55 367.827 1019.71 249.927C874.863 132.027 752.587 222.725 667.702 282.265C582.816 341.805 528.583 327.741 445.382 327.067Z" fill="url(#paint0_linear_3959_6712)"/>
</g>
<mask id="mask0_3959_6712" style="mask-type:alpha" maskUnits="userSpaceOnUse" x="638" y="185" width="378" height="327">
<ellipse cx="827.118" cy="348.7" rx="213.717" ry="127.813" transform="rotate(-36.2854 827.118 348.7)" fill="url(#paint1_radial_3959_6712)"/>
</mask>
<g mask="url(#mask0_3959_6712)">
<path d="M639.962 462.984C613.3 473.217 607.442 483.7 591.671 508.268L848.301 603.61C913.692 504.122 1027.03 313.604 982.025 295.593C934.933 276.746 863.143 284.596 819.115 306.17C775.088 327.743 739.607 399.77 722.938 425.405C707.494 449.154 666.623 452.751 639.962 462.984Z" fill="#7B5FE7"/>
<g filter="url(#filter5_f_3959_6712)">
<path d="M639.962 462.543C613.3 472.776 607.442 483.258 591.671 507.827L848.301 603.169C913.692 503.681 1010.92 284.172 965.917 266.161C930.331 251.919 865.65 286.152 832.494 305.823C821.775 312.182 829.36 319.389 822.644 319.843C773.726 323.145 739.607 399.329 722.938 424.964C707.494 448.713 666.623 452.309 639.962 462.543Z" fill="#7B5FE7"/>
</g>
<g filter="url(#filter6_f_3959_6712)">
<path d="M632.906 459.455C606.244 469.688 600.386 480.171 584.615 504.74L848.302 603.61C913.694 504.122 970.573 303.018 925.57 285.007C883.355 268.112 858.911 288.171 824.777 307.774C820.833 310.039 827.205 310.992 822.645 313.227C778.618 334.8 732.551 396.242 715.882 421.876C700.439 445.626 659.568 449.222 632.906 459.455Z" fill="#7B5FE7"/>
</g>
<g filter="url(#filter7_f_3959_6712)">
<path d="M625.848 455.927C599.187 466.16 593.329 476.643 577.558 501.211L848.302 603.611C913.693 504.122 1037.62 278.318 992.611 260.307C954.627 245.106 887.431 282.038 845.727 298.318C835.728 302.221 829.836 309.937 821.321 314.109C777.294 335.683 725.493 392.713 708.824 418.348C693.381 442.097 652.51 445.694 625.848 455.927Z" fill="#7B5FE7"/>
</g>
<g filter="url(#filter8_f_3959_6712)">
<path d="M603.353 446.289C576.692 456.523 570.834 467.005 555.062 491.574L832.864 601.03C898.255 501.542 955.134 300.438 910.131 282.427C875.227 268.458 848.687 297.2 832.053 307.534C826.245 311.142 842.903 317.325 830.289 317.325C781.551 317.325 790.765 368.626 710.539 402.451C684.436 413.458 630.015 436.056 603.353 446.289Z" fill="#7B5FE7"/>
</g>
</g>
<g opacity="0.6" filter="url(#filter9_f_3959_6712)">
<circle cx="877.697" cy="412.376" r="72.5557" fill="#6B19F0"/>
</g>
<g opacity="0.3" filter="url(#filter10_f_3959_6712)">
<ellipse cx="575.213" cy="388.799" rx="235.943" ry="105.326" transform="rotate(20.3891 575.213 388.799)" fill="#AE00FF"/>
</g>
<mask id="mask1_3959_6712" style="mask-type:alpha" maskUnits="userSpaceOnUse" x="3" y="225" width="650" height="345">
<path d="M97.519 569.914C73.277 430.011 5.0405 305.103 3.27093 298.234L652.381 225.956L621.495 563.807L97.519 569.914Z" fill="url(#paint2_linear_3959_6712)"/>
</mask>
<g mask="url(#mask1_3959_6712)">
<path d="M291.318 326.015C350.415 315.674 406.008 340.729 411.302 370.986C416.596 401.242 399.62 445.134 336.214 456.228C304.793 461.726 270.18 488.627 230.213 480.091C189.528 471.403 190.949 428.625 188.278 413.362C182.984 383.105 232.22 336.355 291.318 326.015Z" fill="#8A4DEE"/>
<g filter="url(#filter11_f_3959_6712)">
<path d="M291.061 328.73C354.442 317.64 404.877 338.713 409.428 364.72C413.978 390.728 396.037 429.042 332.656 440.132C301.248 445.627 266.273 470.361 226.691 463.939C186.398 457.402 188.829 420.419 186.534 407.3C181.983 381.293 227.68 339.82 291.061 328.73Z" fill="#8A4DEE"/>
</g>
<g filter="url(#filter12_f_3959_6712)">
<path d="M292.984 328.394C364.022 315.965 421.119 342.834 426.729 374.898C432.339 406.962 412.9 453.73 341.862 466.159C306.66 472.319 268.336 505.052 223.719 496.403C178.3 487.598 179.855 439.461 177.025 423.286C171.414 391.222 221.947 340.824 292.984 328.394Z" fill="#8A4DEE"/>
</g>
<g filter="url(#filter13_f_3959_6712)">
<path d="M301.845 330.757C390.926 323.276 470.852 352.152 477.418 389.679C483.984 427.206 446.567 475.563 361.371 490.469C319.153 497.856 272.037 548.252 218.608 538.341C164.219 528.251 166.874 475.038 163.562 456.108C156.996 418.581 198.648 339.423 301.845 330.757Z" fill="#8A4DEE"/>
</g>
<g filter="url(#filter14_f_3959_6712)">
<path d="M334.051 340.774C425.784 324.724 513.216 359.256 519.636 395.946C526.055 432.636 485.064 480.686 393.331 496.737C347.873 504.69 295.128 528.35 237.923 519.529C179.69 510.549 183.436 458.321 180.198 439.813C173.778 403.123 242.318 356.825 334.051 340.774Z" fill="#8A4DEE"/>
</g>
<g filter="url(#filter15_f_3959_6712)">
<path d="M372.319 349.172C467.117 332.586 557.38 367.759 563.946 405.285C570.512 442.812 528.078 492.047 433.28 508.634C386.303 516.853 331.77 541.155 272.688 532.232C212.544 523.15 216.508 469.708 213.196 450.778C206.63 413.251 277.522 365.759 372.319 349.172Z" fill="#8A4DEE"/>
</g>
<g filter="url(#filter16_f_3959_6712)">
<path d="M299.973 355.68C382.921 341.167 462.983 378.125 469.549 415.651C476.115 453.178 439.872 501.33 356.924 515.843C315.819 523.035 267.657 541.75 215.551 531.607C162.509 521.282 164.858 468.122 161.546 449.192C154.98 411.665 217.025 370.194 299.973 355.68Z" fill="#8A4DEE"/>
</g>
</g>
<g opacity="0.6" filter="url(#filter17_f_3959_6712)">
<ellipse cx="708.906" cy="393.225" rx="72.5557" ry="21.4877" transform="rotate(-41.2443 708.906 393.225)" fill="#28009B"/>
</g>
<defs>
<filter id="filter0_f_3959_6712" x="97.6705" y="0.638184" width="873.757" height="703.945" filterUnits="userSpaceOnUse" color-interpolation-filters="sRGB">
<feFlood flood-opacity="0" result="BackgroundImageFix"/>
<feBlend mode="normal" in="SourceGraphic" in2="BackgroundImageFix" result="shape"/>
<feGaussianBlur stdDeviation="90.8601" result="effect1_foregroundBlur_3959_6712"/>
</filter>
<filter id="filter1_f_3959_6712" x="322.326" y="183.414" width="920.44" height="592.933" filterUnits="userSpaceOnUse" color-interpolation-filters="sRGB">
<feFlood flood-opacity="0" result="BackgroundImageFix"/>
<feBlend mode="normal" in="SourceGraphic" in2="BackgroundImageFix" result="shape"/>
<feGaussianBlur stdDeviation="90.8601" result="effect1_foregroundBlur_3959_6712"/>
</filter>
<filter id="filter2_f_3959_6712" x="194.626" y="196.688" width="693.948" height="608.85" filterUnits="userSpaceOnUse" color-interpolation-filters="sRGB">
<feFlood flood-opacity="0" result="BackgroundImageFix"/>
<feBlend mode="normal" in="SourceGraphic" in2="BackgroundImageFix" result="shape"/>
<feGaussianBlur stdDeviation="90.8601" result="effect1_foregroundBlur_3959_6712"/>
</filter>
<filter id="filter3_f_3959_6712" x="0.0337524" y="71.2092" width="674.268" height="674.269" filterUnits="userSpaceOnUse" color-interpolation-filters="sRGB">
<feFlood flood-opacity="0" result="BackgroundImageFix"/>
<feBlend mode="normal" in="SourceGraphic" in2="BackgroundImageFix" result="shape"/>
<feGaussianBlur stdDeviation="90.8601" result="effect1_foregroundBlur_3959_6712"/>
</filter>
<filter id="filter4_f_3959_6712" x="108.496" y="123.696" width="1101.55" height="517.624" filterUnits="userSpaceOnUse" color-interpolation-filters="sRGB">
<feFlood flood-opacity="0" result="BackgroundImageFix"/>
<feBlend mode="normal" in="SourceGraphic" in2="BackgroundImageFix" result="shape"/>
<feGaussianBlur stdDeviation="34.4033" result="effect1_foregroundBlur_3959_6712"/>
</filter>
<filter id="filter5_f_3959_6712" x="582.85" y="253.966" width="403.384" height="358.025" filterUnits="userSpaceOnUse" color-interpolation-filters="sRGB">
<feFlood flood-opacity="0" result="BackgroundImageFix"/>
<feBlend mode="normal" in="SourceGraphic" in2="BackgroundImageFix" result="shape"/>
<feGaussianBlur stdDeviation="4.41068" result="effect1_foregroundBlur_3959_6712"/>
</filter>
<filter id="filter6_f_3959_6712" x="572.265" y="266.315" width="381.763" height="349.646" filterUnits="userSpaceOnUse" color-interpolation-filters="sRGB">
<feFlood flood-opacity="0" result="BackgroundImageFix"/>
<feBlend mode="normal" in="SourceGraphic" in2="BackgroundImageFix" result="shape"/>
<feGaussianBlur stdDeviation="6.17496" result="effect1_foregroundBlur_3959_6712"/>
</filter>
<filter id="filter7_f_3959_6712" x="561.679" y="240.835" width="456.429" height="378.654" filterUnits="userSpaceOnUse" color-interpolation-filters="sRGB">
<feFlood flood-opacity="0" result="BackgroundImageFix"/>
<feBlend mode="normal" in="SourceGraphic" in2="BackgroundImageFix" result="shape"/>
<feGaussianBlur stdDeviation="7.93923" result="effect1_foregroundBlur_3959_6712"/>
</filter>
<filter id="filter8_f_3959_6712" x="532.127" y="255.736" width="417.048" height="368.23" filterUnits="userSpaceOnUse" color-interpolation-filters="sRGB">
<feFlood flood-opacity="0" result="BackgroundImageFix"/>
<feBlend mode="normal" in="SourceGraphic" in2="BackgroundImageFix" result="shape"/>
<feGaussianBlur stdDeviation="11.4678" result="effect1_foregroundBlur_3959_6712"/>
</filter>
<filter id="filter9_f_3959_6712" x="711.635" y="246.313" width="332.124" height="332.124" filterUnits="userSpaceOnUse" color-interpolation-filters="sRGB">
<feFlood flood-opacity="0" result="BackgroundImageFix"/>
<feBlend mode="normal" in="SourceGraphic" in2="BackgroundImageFix" result="shape"/>
<feGaussianBlur stdDeviation="46.7532" result="effect1_foregroundBlur_3959_6712"/>
</filter>
<filter id="filter10_f_3959_6712" x="257.488" y="166.822" width="635.45" height="443.955" filterUnits="userSpaceOnUse" color-interpolation-filters="sRGB">
<feFlood flood-opacity="0" result="BackgroundImageFix"/>
<feBlend mode="normal" in="SourceGraphic" in2="BackgroundImageFix" result="shape"/>
<feGaussianBlur stdDeviation="46.7532" result="effect1_foregroundBlur_3959_6712"/>
</filter>
<filter id="filter11_f_3959_6712" x="182.896" y="322.379" width="230.525" height="145.942" filterUnits="userSpaceOnUse" color-interpolation-filters="sRGB">
<feFlood flood-opacity="0" result="BackgroundImageFix"/>
<feBlend mode="normal" in="SourceGraphic" in2="BackgroundImageFix" result="shape"/>
<feGaussianBlur stdDeviation="1.66282" result="effect1_foregroundBlur_3959_6712"/>
</filter>
<filter id="filter12_f_3959_6712" x="164.96" y="313.655" width="274.318" height="195.833" filterUnits="userSpaceOnUse" color-interpolation-filters="sRGB">
<feFlood flood-opacity="0" result="BackgroundImageFix"/>
<feBlend mode="normal" in="SourceGraphic" in2="BackgroundImageFix" result="shape"/>
<feGaussianBlur stdDeviation="5.81988" result="effect1_foregroundBlur_3959_6712"/>
</filter>
<filter id="filter13_f_3959_6712" x="146.267" y="312.942" width="348.512" height="243.313" filterUnits="userSpaceOnUse" color-interpolation-filters="sRGB">
<feFlood flood-opacity="0" result="BackgroundImageFix"/>
<feBlend mode="normal" in="SourceGraphic" in2="BackgroundImageFix" result="shape"/>
<feGaussianBlur stdDeviation="8.31411" result="effect1_foregroundBlur_3959_6712"/>
</filter>
<filter id="filter14_f_3959_6712" x="134.885" y="291.839" width="430.298" height="274.527" filterUnits="userSpaceOnUse" color-interpolation-filters="sRGB">
<feFlood flood-opacity="0" result="BackgroundImageFix"/>
<feBlend mode="normal" in="SourceGraphic" in2="BackgroundImageFix" result="shape"/>
<feGaussianBlur stdDeviation="22.4481" result="effect1_foregroundBlur_3959_6712"/>
</filter>
<filter id="filter15_f_3959_6712" x="101.365" y="233.546" width="574.648" height="412.034" filterUnits="userSpaceOnUse" color-interpolation-filters="sRGB">
<feFlood flood-opacity="0" result="BackgroundImageFix"/>
<feBlend mode="normal" in="SourceGraphic" in2="BackgroundImageFix" result="shape"/>
<feGaussianBlur stdDeviation="55.7046" result="effect1_foregroundBlur_3959_6712"/>
</filter>
<filter id="filter16_f_3959_6712" x="109.522" y="300.904" width="412.328" height="285.198" filterUnits="userSpaceOnUse" color-interpolation-filters="sRGB">
<feFlood flood-opacity="0" result="BackgroundImageFix"/>
<feBlend mode="normal" in="SourceGraphic" in2="BackgroundImageFix" result="shape"/>
<feGaussianBlur stdDeviation="25.7737" result="effect1_foregroundBlur_3959_6712"/>
</filter>
<filter id="filter17_f_3959_6712" x="559.021" y="249.216" width="299.77" height="288.018" filterUnits="userSpaceOnUse" color-interpolation-filters="sRGB">
<feFlood flood-opacity="0" result="BackgroundImageFix"/>
<feBlend mode="normal" in="SourceGraphic" in2="BackgroundImageFix" result="shape"/>
<feGaussianBlur stdDeviation="46.7532" result="effect1_foregroundBlur_3959_6712"/>
</filter>
<linearGradient id="paint0_linear_3959_6712" x1="659.27" y1="192.503" x2="659.27" y2="572.514" gradientUnits="userSpaceOnUse">
<stop stop-color="#6849E1"/>
<stop offset="1" stop-color="#3E1088"/>
</linearGradient>
<radialGradient id="paint1_radial_3959_6712" cx="0" cy="0" r="1" gradientUnits="userSpaceOnUse" gradientTransform="translate(863.745 328.233) rotate(103.875) scale(152.737 245.797)">
<stop offset="0.120131" stop-color="#C4C4C4"/>
<stop offset="0.692585" stop-color="#C4C4C4" stop-opacity="0"/>
</radialGradient>
<linearGradient id="paint2_linear_3959_6712" x1="268.703" y1="343.432" x2="316.225" y2="572.551" gradientUnits="userSpaceOnUse">
<stop stop-color="#C4C4C4"/>
<stop offset="1" stop-color="#C4C4C4" stop-opacity="0"/>
</linearGradient>
</defs>
</svg>
